<svg width="619" height="478" viewBox="0 0 619 478" fill="none" xmlns="http://www.w3.org/2000/svg">
<g clip-path="url(#clip0_2014_206)">
<path d="M53.9222 127.404L40.3158 229.631L25.6985 127.404H0L24.5212 277.958H56.2723L81.1393 127.404H53.9222Z" fill="#F1E6A6"/>
<path d="M96.3867 127.402H126.453V277.955H96.3867V127.402Z" fill="#F1E6A6"/>
<path d="M145.67 127.403H166.839L194.725 199.894V127.403H219.588V277.957H199.259L171.373 199.894V277.957H145.67V127.403Z" fill="#F1E6A6"/>
<mask id="mask0_2014_206" style="mask-type:luminance" maskUnits="userSpaceOnUse" x="0" y="0" width="619" height="478">
<path d="M0 -5.29678e-06H619V478H0V-5.29678e-06Z" fill="white"/>
</mask>
<g mask="url(#mask0_2014_206)">
<path d="M246.897 267.271C240.682 258.659 237.575 246.238 237.575 230.003V175.727C237.575 159.125 240.651 146.581 246.813 138.092C252.975 129.602 263.501 125.355 278.394 125.355C292.617 125.355 302.696 129.138 308.631 136.695C314.57 144.256 317.541 154.974 317.541 168.853V181.865H288.14V166.808C288.14 160.985 287.58 156.524 286.46 153.424C285.339 150.329 282.652 148.779 278.394 148.779C274.14 148.779 271.343 150.421 269.995 153.704C268.656 156.988 267.978 161.541 267.978 167.364V238.182C267.978 244.128 268.682 248.681 270.083 251.842C271.479 255.003 274.254 256.584 278.394 256.584C282.538 256.584 285.199 255.003 286.376 251.842C287.554 248.681 288.14 244.128 288.14 238.182V222.381H317.541V235.393C317.541 249.517 314.57 260.52 308.631 268.383C302.696 276.255 292.617 280.187 278.394 280.187C263.61 280.187 253.115 275.883 246.897 267.271Z" fill="#F1E6A6"/>
<path d="M334.338 127.402H364.405V277.955H334.338V127.402Z" fill="#F1E6A6"/>
<path d="M14.7227 436.465C7.95229 428.299 4.3286 415.318 3.85156 397.52L31.3488 392.941C31.4626 403.168 32.5742 410.502 34.6749 414.95C36.7668 419.403 39.9135 421.622 44.1061 421.622C49.4979 421.622 52.1982 417.708 52.1982 409.871C52.1982 403.628 50.9071 398.252 48.3294 393.733C45.7517 389.219 41.7078 384.373 36.1979 379.193L23.62 367.044C17.3879 361.199 12.5694 354.99 9.15581 348.414C5.73781 341.843 4.031 334.041 4.031 325.008C4.031 311.462 7.65469 301.038 14.9021 293.731C22.1495 286.428 32.1278 282.776 44.8238 282.776C58.6009 282.776 67.9796 287.229 72.9513 296.121C77.9185 305.022 80.5882 315.845 80.9514 328.594L53.2748 332.381C53.0297 324.01 52.3426 318.003 51.2047 314.348C50.0668 310.696 47.581 308.87 43.7472 308.87C40.9901 308.87 38.8675 310.166 37.3664 312.758C35.8696 315.346 35.1213 318.235 35.1213 321.423C35.1213 326.869 36.2285 331.453 38.4474 335.166C40.6618 338.887 44.2243 343.134 49.139 347.915L61.1786 359.671C68.3691 366.444 73.9403 373.615 77.8966 381.185C81.8486 388.755 83.8223 397.717 83.8223 408.081C83.8223 415.651 82.2337 422.52 79.0608 428.698C75.8878 434.871 71.4239 439.753 65.6732 443.338C59.9226 446.924 53.2748 448.715 45.7254 448.715C31.8214 448.715 21.493 444.634 14.7227 436.465Z" fill="#F1E6A6"/>
<path d="M150.136 418.338C151.571 414.949 152.293 410.339 152.293 404.49V326.798C152.293 320.827 151.571 316.177 150.136 312.854C148.7 309.535 145.703 307.876 141.151 307.876C136.595 307.876 133.659 309.505 132.346 312.758C131.024 316.011 130.367 320.695 130.367 326.798V404.49C130.367 410.339 131.024 414.949 132.346 418.338C133.659 421.722 136.595 423.417 141.151 423.417C145.703 423.417 148.7 421.722 150.136 418.338ZM158.582 466.345C152.591 460.57 147.799 454.625 144.206 448.517C143.606 448.648 142.587 448.714 141.151 448.714C125.453 448.714 114.253 444.235 107.544 435.269C100.831 426.306 97.4785 413.058 97.4785 395.528V335.564C97.4785 318.033 100.831 304.859 107.544 296.024C114.253 287.193 125.453 282.776 141.151 282.776C156.968 282.776 168.259 287.228 175.025 296.12C181.791 305.021 185.182 318.169 185.182 335.564V395.528C185.182 407.349 183.651 417.213 180.6 425.111C177.546 433.014 172.657 438.889 165.948 442.742C172.062 450.041 177.034 454.756 180.867 456.884L174.04 478C169.729 476.008 164.574 472.124 158.582 466.345Z" fill="#F1E6A6"/>
<path d="M220.941 442.839C214.591 438.925 210.127 433.146 207.553 425.51C204.98 417.875 203.693 408.146 203.693 396.325V284.965H235.501V401.702C235.501 408.212 236.245 413.391 237.746 417.24C239.243 421.097 242.267 423.019 246.823 423.019C251.375 423.019 254.373 421.097 255.808 417.24C257.248 413.391 257.966 408.212 257.966 401.702V284.965H289.957V396.325C289.957 408.146 288.636 417.875 286.001 425.51C283.367 433.146 278.903 438.925 272.614 442.839C266.32 446.758 257.721 448.715 246.823 448.715C235.917 448.715 227.291 446.758 220.941 442.839Z" fill="#F1E6A6"/>
<path d="M355.731 390.947L348.002 327.997L340.278 390.947H355.731ZM329.494 284.968H366.156L393.29 446.327H363.639L358.786 412.26H337.403L332.365 446.327H301.997L329.494 284.968Z" fill="#F1E6A6"/>
<path d="M449.179 353.494C455.652 353.494 460.173 351.603 462.75 347.816C465.324 344.033 466.61 338.355 466.61 330.785C466.61 323.482 465.416 318.005 463.017 314.349C460.619 310.697 456.488 308.872 450.619 308.872H440.194V353.494H449.179ZM408.027 284.967H448.102C464.037 284.967 476.077 288.088 484.226 294.327C492.37 300.575 496.449 311.661 496.449 327.597C496.449 338.355 495.189 346.923 492.672 353.297C490.156 359.672 485.486 364.65 478.654 368.236L498.602 446.326H465.354L449.358 374.015H440.194V446.326H408.027V284.967Z" fill="#F1E6A6"/>
<path d="M515.856 284.967H581.271V309.271H548.027V349.309H573.367V374.011H548.027V422.224H581.63V446.326H515.856V284.967Z" fill="#F1E6A6"/>
<path d="M593.131 417.703H619V446.328H593.131V417.703Z" fill="#F1E6A6"/>
<path d="M608.3 24.2076L603.341 21.7295L608.3 18.0168V24.2076ZM587.384 80.6953H574.758L597.096 28.5902L607.035 33.5419L587.384 80.6953ZM598.352 89.6662C599 94.1451 599.328 98.6941 599.328 103.112L599.337 119.499C599.363 155.414 581.647 189.047 552.014 209.458L550.04 210.807V268.993H460.415V228.644H415.6V173.96L386.554 167.327L412.786 120.533L412.537 118.935C410.869 109.127 410.773 98.6328 412.217 89.6662H415.6H460.411H598.352ZM438.008 44.9165C435.531 44.9165 433.522 42.9025 433.522 40.4332C433.522 37.9595 435.531 35.9499 438.008 35.9499C440.48 35.9499 442.485 37.9595 442.485 40.4332C442.485 42.9069 440.48 44.9165 438.008 44.9165ZM406.637 40.4332C406.637 23.1305 420.712 9.05022 438.008 9.05022C455.299 9.05022 469.374 23.1305 469.374 40.4332C469.374 51.5714 463.36 61.974 453.688 67.5825L451.448 68.8741V80.6953H442.485V53.0512C447.693 51.1993 451.448 46.265 451.448 40.4289C451.448 33.0122 445.417 26.979 438.008 26.979C430.594 26.979 424.563 33.0122 424.563 40.4289C424.563 46.265 428.323 51.1993 433.522 53.0556V80.6953H424.563V68.8741L422.327 67.5781C412.651 61.9696 406.637 51.5714 406.637 40.4332ZM489.632 42.0356L495.068 54.0057C485.746 54.6318 478.341 62.333 478.341 71.8163V80.6953H460.411V73.9397C469.382 67.9284 475.461 58.5459 477.518 48.0951L489.632 42.0356ZM507.23 80.6953H487.304V71.8163C487.304 66.8733 491.322 62.7665 496.263 62.7665H499.081L507.23 80.6953ZM494.691 15.1753L512.504 22.8109L508.298 24.8731L521.663 53.7955H504.853L493.934 29.8161L489.921 31.8432L494.691 15.1753ZM534.075 80.6953H517.073L508.928 62.7621H525.799L534.075 80.6953ZM550.036 9.05022H559.003V18.0168H550.036V9.05022ZM617.262 0.0836234L591.214 19.5929L565.012 80.6953H543.944L535.672 62.7665H541.082C550.964 62.7665 559.003 54.8069 559.003 44.9165V26.8958H567.966V0.000449685H541.082V26.8958H550.04V44.9165C550.04 49.8551 546.023 53.7955 541.082 53.7955H531.537L520.084 29.0061L533.808 22.163L488.875 2.91196L478.31 39.8947C478.022 17.8942 460.065 0.0792476 438.003 0.0792476C415.762 0.0792476 397.67 18.1788 397.67 40.4289C397.67 53.8743 404.48 66.4836 415.6 73.9397V80.6953H404.742L404.046 84.373C401.867 95.6775 401.666 107.293 403.443 118.878L372.873 173.391L406.637 181.105V237.61H451.448V277.96H559.003V215.483C590.369 193.285 608.291 157.59 608.26 119.508L608.273 103.155C608.273 96.991 607.7 90.6557 606.558 84.4124L605.892 80.6953H597.091L617.262 32.3642V0.0836234Z" fill="#F1E6A6"/>
<path d="M446.969 116.562C439.56 116.562 433.525 112.079 433.525 103.112H424.562C424.562 116.562 434.615 125.529 446.969 125.529C459.324 125.529 469.377 116.562 469.377 103.112H460.414C460.409 112.079 454.379 116.562 446.969 116.562Z" fill="#F1E6A6"/>
</g>
</g>
<defs>
<clipPath id="clip0_2014_206">
<rect width="619" height="478" fill="white"/>
</clipPath>
</defs>
</svg>
