<svg width="263" height="75" viewBox="0 0 263 75" fill="none" xmlns="http://www.w3.org/2000/svg">
<path d="M50.56 52H31.12V48.8C31.12 44.12 32.36 40.76 40.04 37.64C44.8 35.68 45.76 34.32 45.76 31.4V31.28C45.76 28.8 44.08 26.88 41.2 26.88C38 26.88 36.12 28.76 36 32H31.36C31.68 26.64 35.32 23.08 41.12 23.08C46.68 23.08 50.36 26.68 50.36 31.16V31.4C50.36 35.24 48.88 38.2 42.32 41C36.88 43.36 36 44.92 35.96 48.12H50.56V52ZM63.1822 52.52C57.3822 52.52 53.3422 49.2 52.9422 43.88H57.5822C57.9022 47.04 60.3022 48.68 63.2622 48.68C66.5822 48.68 68.9422 46.48 68.9422 43.16V42.6C68.9422 39.24 66.6622 37.08 63.2622 37.08C60.9022 37.08 58.9422 38.28 57.9022 39.84L53.9822 39.56L56.5022 23.6H72.2222V27.48H59.9022L58.5822 35.52C60.0222 34.24 62.0622 33.48 64.3022 33.48C69.5022 33.48 73.5022 37.08 73.5022 42.52V42.96C73.5022 48.6 69.2222 52.52 63.1822 52.52ZM81.6841 52H76.9241V47.2H81.6841V52ZM94.78 52.52C87.94 52.52 84.26 47.04 84.26 38.2V37.4C84.26 28.64 87.94 23.08 94.78 23.08C101.74 23.08 105.34 28.64 105.34 37.4V38.2C105.34 47.04 101.78 52.52 94.78 52.52ZM94.78 48.68C98.82 48.68 100.58 45.36 100.58 38.4V37.2C100.58 30.28 98.82 26.92 94.78 26.92C90.86 26.92 89.02 30.28 89.02 37.2V38.4C89.02 45.36 90.86 48.68 94.78 48.68ZM119.709 52.52C113.109 52.52 108.949 47.56 108.949 38.56V37.12C108.949 28.24 113.029 23.08 119.749 23.08C125.149 23.08 128.869 26.16 129.589 31.08H124.989C124.469 28.44 122.589 26.92 119.749 26.92C115.749 26.92 113.349 29.56 113.349 36.76V37.52C114.669 35.24 117.269 33.68 120.669 33.68C125.709 33.68 129.789 37.12 129.789 42.52V42.96C129.789 48.52 125.589 52.52 119.709 52.52ZM119.709 48.76C122.909 48.76 125.069 46.52 125.069 43.16V42.6C125.069 39.48 122.949 37.36 119.709 37.36C116.429 37.36 114.189 39.56 114.189 42.64V43.16C114.189 46.4 116.429 48.76 119.709 48.76ZM137.934 52H133.174V47.2H137.934V52ZM162.005 52H142.565V48.8C142.565 44.12 143.805 40.76 151.485 37.64C156.245 35.68 157.205 34.32 157.205 31.4V31.28C157.205 28.8 155.525 26.88 152.645 26.88C149.445 26.88 147.565 28.76 147.445 32H142.805C143.125 26.64 146.765 23.08 152.565 23.08C158.125 23.08 161.805 26.68 161.805 31.16V31.4C161.805 35.24 160.325 38.2 153.765 41C148.325 43.36 147.445 44.92 147.405 48.12H162.005V52ZM175.171 52.52C168.331 52.52 164.651 47.04 164.651 38.2V37.4C164.651 28.64 168.331 23.08 175.171 23.08C182.131 23.08 185.731 28.64 185.731 37.4V38.2C185.731 47.04 182.171 52.52 175.171 52.52ZM175.171 48.68C179.211 48.68 180.971 45.36 180.971 38.4V37.2C180.971 30.28 179.211 26.92 175.171 26.92C171.251 26.92 169.411 30.28 169.411 37.2V38.4C169.411 45.36 171.251 48.68 175.171 48.68ZM208.06 52H188.62V48.8C188.62 44.12 189.86 40.76 197.54 37.64C202.3 35.68 203.26 34.32 203.26 31.4V31.28C203.26 28.8 201.58 26.88 198.7 26.88C195.5 26.88 193.62 28.76 193.5 32H188.86C189.18 26.64 192.82 23.08 198.62 23.08C204.18 23.08 207.86 26.68 207.86 31.16V31.4C207.86 35.24 206.38 38.2 199.82 41C194.38 43.36 193.5 44.92 193.46 48.12H208.06V52ZM220.682 52.52C214.882 52.52 210.842 49.2 210.442 43.88H215.082C215.402 47.04 217.802 48.68 220.762 48.68C224.082 48.68 226.442 46.48 226.442 43.16V42.6C226.442 39.24 224.162 37.08 220.762 37.08C218.402 37.08 216.442 38.28 215.402 39.84L211.482 39.56L214.002 23.6H229.722V27.48H217.402L216.082 35.52C217.522 34.24 219.562 33.48 221.802 33.48C227.002 33.48 231.002 37.08 231.002 42.52V42.96C231.002 48.6 226.722 52.52 220.682 52.52Z" fill="#F1E6A6"/>
<rect x="1" y="1" width="261" height="73" rx="36.5" stroke="#F1E6A6" stroke-width="2"/>
</svg>
