<svg xmlns="http://www.w3.org/2000/svg" viewBox="0 0 314 47"><path fill="#F1E6A6" d="M0 32.518h6.862c.591 5.919 4.849 8.43 10.648 8.43 5.264 0 9.05-2.092 9.05-6.339v-.298c0-3.65-2.54-5.5-11.063-7.057C5.145 25.404 1.478 21.52 1.478 15.181v-.42c0-6.935 5.975-12.021 15.145-12.021s15.201 4.425 16.032 13.096h-6.919c-.59-4.901-4.025-7.355-9.226-7.355-5.202 0-8.283 2.39-8.283 6.096v.3c0 3.286 1.773 5.142 10.113 6.58 10.057 1.735 15.025 5.263 15.025 12.199v.477c0 7.355-6.214 12.62-16.15 12.62C7.276 46.752.471 41.608 0 32.517ZM38.278 34.972v-19.79h6.566v18.537c0 4.724 1.717 7.534 6.094 7.534 4.378 0 7.157-3.471 7.157-8.97V15.18h6.567v30.796h-6.334l-.12-4.667c-1.773 2.988-5.03 5.442-9.402 5.442-7.1 0-10.528-4.545-10.528-11.78ZM69.278 36.409h6.27c.535 3.649 3.133 5.378 7.158 5.378 3.667 0 6.151-1.494 6.151-4.247 0-2.454-1.717-3.649-7.51-4.723-7.396-1.259-11.006-3.65-11.006-9.148 0-5.5 4.912-9.206 11.893-9.206 7.334 0 11.887 3.528 12.479 9.625h-6.214c-.472-3.109-2.843-4.78-6.328-4.78-3.484 0-5.56 1.493-5.56 4.005 0 2.51 1.718 3.528 7.277 4.424 7.692 1.259 11.416 3.827 11.416 9.206 0 5.861-5.032 9.81-12.66 9.81-7.63 0-12.781-3.77-13.372-10.344h.006ZM102.883 37.661v-17.52h-5.912v-4.966h5.912V3.821h6.509v11.36h8.283v4.966h-8.283v16.802c0 3.052 1.126 4.425 4.73 4.425 1.302 0 2.843-.3 3.729-.598v5.264c-1.358.42-3.427.718-4.968.718-6.686 0-10-3.108-10-9.09v-.007ZM121.399 37.661c0-4.901 2.956-8.131 8.163-8.85l12.007-1.792v-2.213c0-3.407-2.308-5.2-6.151-5.2s-6.327 1.736-6.623 4.844h-6.214c.535-6.338 5.503-9.987 12.956-9.987 7.868 0 12.302 4.183 12.302 10.585v20.929h-5.975l-.239-4.781c-1.893 3.47-5.616 5.562-9.993 5.562-6.271 0-10.233-3.827-10.233-9.09v-.007Zm20.17-2.988v-2.81l-9.761 1.373c-2.78.42-4.082 1.736-4.082 4.126 0 2.569 1.95 4.183 5.384 4.183 4.553 0 8.459-2.867 8.459-6.878v.006ZM160.859 10.693h-6.806V3.821h6.806v6.878-.006Zm-.177 4.488v30.796h-6.509V15.18h6.509ZM167.186 45.97V15.181h6.27l.239 4.902c1.598-3.052 4.793-5.62 9.699-5.62 7.396 0 10.528 4.666 10.528 11.66v19.854h-6.447v-18.24c0-5.022-1.836-7.832-6.27-7.832-4.434 0-7.516 3.35-7.516 8.85v17.222h-6.51l.007-.007ZM233.369 14.864c0 .146-.195.654-.578 1.532l-9.579 21.9c-.918 2.092-1.377 3.7-1.377 4.82 0 1.265.629 1.9 1.886 1.9 1.887 0 3.774-1.296 5.661-3.89.384-.54.679-.808.868-.808.189 0 .289.096.289.293 0 .54-.534 1.392-1.597 2.568-2.132 2.302-4.667 3.446-7.623 3.446-1.503 0-2.723-.369-3.667-1.1-.943-.731-1.415-1.685-1.415-2.86 0-.732.17-1.59.509-2.57-3.05 4.502-6.578 6.752-10.597 6.752-2.516 0-4.573-.82-6.17-2.453-1.598-1.634-2.396-3.72-2.396-6.262 0-2.779.918-5.83 2.761-9.149 1.836-3.318 4.283-6.344 7.327-9.078 4.163-3.706 7.981-5.563 11.465-5.563 3.485 0 5.661 1.761 6.095 5.283l1.811-3.89c.384-.782.724-1.177 1.019-1.177.095 0 .384.051.868.147.484.095.824.146 1.019.146 1.063 0 1.887-.115 2.465-.344.195-.114.365-.171.51-.171.289 0 .434.171.434.508l.012.02Zm-9.144 6.07c0-1.506-.447-2.727-1.346-3.648-.893-.922-2.044-1.386-3.447-1.386-2.421 0-4.742 1.437-6.969 4.304-2.566 3.261-4.622 6.707-6.17 10.33-1.547 3.624-2.32 6.803-2.32 9.524 0 3.312 1.352 4.965 4.063 4.965 1.547 0 3.226-.852 5.044-2.556 1.817-1.704 3.327-3.846 4.534-6.42l5.661-12.264c.629-1.36.943-2.314.943-2.848h.007ZM265.88 23.65c0 5.467-2.529 10.699-7.586 15.702-5.056 5.003-10.346 7.502-15.855 7.502-2.566 0-4.73-.7-6.497-2.085-1.767-1.393-2.648-3.065-2.648-5.016 0-1.126.73-3.37 2.176-6.74l12.893-29.192c.145-.534.34-.986.579-1.354.245-.37.365-.573.365-.623 0-.534-1.333-.757-3.994-.662-.39 0-.579-.146-.579-.438 0-.343.604-.515 1.812-.515 4.012 0 6.264-.026 6.748-.076l1.522-.147h.51c.384 0 .578.147.578.439 0 .146-.069.343-.22.585-.484.731-.993 1.76-1.522 3.083l-4.478 10.98c-.484 1.175-1.138 2.542-1.962 4.106.289-.292.535-.515.723-.66l1.887-1.762c1.742-1.615 3.969-2.422 6.679-2.422 2.567 0 4.68.877 6.353 2.638 1.666 1.755 2.503 3.98 2.503 6.663l.013-.007Zm-5.881-2.938c0-3.356-1.258-5.035-3.774-5.035-4.836 0-9.239 4.845-13.208 14.527l-1.742 4.234c-1.692 4.139-2.541 6.91-2.541 8.322 0 1.945 1.283 2.918 3.849 2.918 4.743 0 9.026-3.675 12.85-11.024 3.05-5.842 4.572-10.49 4.572-13.942h-.006ZM290.025.731c0 .095-.12.439-.365 1.03-.145.394-.39.979-.723 1.761L275.1 37.54c-1.208 2.982-1.812 4.915-1.812 5.798 0 1.322.875 1.984 2.611 1.984 1.735 0 3.484-1.03 5.226-3.084.723-.877 1.183-1.322 1.377-1.322.34 0 .51.172.51.515 0 .636-.799 1.666-2.396 3.083-1.837 1.66-4.208 2.492-7.114 2.492-3.968 0-5.95-1.494-5.95-4.488 0-.979.604-2.969 1.812-5.957l13.837-34.056c.144-.293.22-.464.22-.515 0-.439-.459-.661-1.378-.661-2.132 0-3.195-.166-3.195-.503 0-.247.22-.375.654-.375h3.994c2.082 0 3.629-.063 4.642-.197.534-.063.893-.095 1.088-.095.534 0 .799.197.799.585V.73ZM314 19.39c0 2.625-1.403 4.806-4.208 6.535-2.805 1.73-6.365 2.594-10.667 2.594-1.547 0-3.264-.095-5.151-.292-1.792 3.75-2.685 7.234-2.685 10.445 0 4.336 1.912 6.497 5.729 6.497 2.95 0 5.831-1.545 8.636-4.634.629-.674 1.038-1.018 1.233-1.018.245 0 .364.121.364.363 0 1.112-1.138 2.492-3.408 4.138-2.611 1.889-5.321 2.836-8.133 2.836-3.144 0-5.729-.928-7.767-2.778-2.032-1.857-3.051-4.196-3.051-7.025 0-5.468 2.95-10.757 8.856-15.881 5.176-4.488 9.799-6.732 13.862-6.732 4.063 0 6.384 1.652 6.384 4.958l.006-.006Zm-5.157-1.22c0-1.514-.749-2.277-2.252-2.277-1.503 0-3.076.585-4.572 1.761-2.711 2.155-5.202 5.353-7.479 9.613a22.8 22.8 0 0 0 1.963.07c2.71 0 5.346-.833 7.912-2.492 2.95-1.857 4.428-4.082 4.428-6.676Z"/></svg>